<mxfile host="65bd71144e">
    <diagram id="EpP1F7sZiFKH9h4TUSkd" name="Page-1">
        <mxGraphModel dx="1771" dy="1184" grid="1" gridSize="10" guides="1" tooltips="1" connect="1" arrows="1" fold="1" page="1" pageScale="1" pageWidth="850" pageHeight="1100" math="0" shadow="0">
            <root>
                <mxCell id="0"/>
                <mxCell id="1" parent="0"/>
                <mxCell id="2" value="Board" style="swimlane;fontStyle=0;align=center;verticalAlign=top;childLayout=stackLayout;horizontal=1;startSize=50;horizontalStack=0;resizeParent=1;resizeParentMax=0;resizeLast=0;collapsible=0;marginBottom=0;html=1;" vertex="1" parent="1">
                    <mxGeometry x="120" y="100" width="140" height="140" as="geometry"/>
                </mxCell>
                <mxCell id="3" value="attributes" style="text;html=1;strokeColor=none;fillColor=none;align=center;verticalAlign=middle;spacingLeft=4;spacingRight=4;overflow=hidden;rotatable=0;points=[[0,0.5],[1,0.5]];portConstraint=eastwest;" vertex="1" parent="2">
                    <mxGeometry y="50" width="140" height="40" as="geometry"/>
                </mxCell>
                <mxCell id="7" value="" style="line;strokeWidth=1;fillColor=none;align=left;verticalAlign=middle;spacingTop=-1;spacingLeft=3;spacingRight=3;rotatable=0;labelPosition=right;points=[];portConstraint=eastwest;" vertex="1" parent="2">
                    <mxGeometry y="90" width="140" height="8" as="geometry"/>
                </mxCell>
                <mxCell id="8" value="operations" style="text;html=1;strokeColor=none;fillColor=none;align=center;verticalAlign=middle;spacingLeft=4;spacingRight=4;overflow=hidden;rotatable=0;points=[[0,0.5],[1,0.5]];portConstraint=eastwest;" vertex="1" parent="2">
                    <mxGeometry y="98" width="140" height="42" as="geometry"/>
                </mxCell>
                <mxCell id="10" value="&amp;lt;&amp;lt;Piece&amp;gt;&amp;gt;" style="swimlane;fontStyle=0;align=center;verticalAlign=top;childLayout=stackLayout;horizontal=1;startSize=50;horizontalStack=0;resizeParent=1;resizeParentMax=0;resizeLast=0;collapsible=0;marginBottom=0;html=1;" vertex="1" parent="1">
                    <mxGeometry x="450" y="100" width="190" height="140" as="geometry"/>
                </mxCell>
                <mxCell id="11" value="-color: bool" style="text;html=1;strokeColor=none;fillColor=none;align=left;verticalAlign=middle;spacingLeft=4;spacingRight=4;overflow=hidden;rotatable=0;points=[[0,0.5],[1,0.5]];portConstraint=eastwest;" vertex="1" parent="10">
                    <mxGeometry y="50" width="190" height="40" as="geometry"/>
                </mxCell>
                <mxCell id="12" value="" style="line;strokeWidth=1;fillColor=none;align=left;verticalAlign=middle;spacingTop=-1;spacingLeft=3;spacingRight=3;rotatable=0;labelPosition=right;points=[];portConstraint=eastwest;" vertex="1" parent="10">
                    <mxGeometry y="90" width="190" height="8" as="geometry"/>
                </mxCell>
                <mxCell id="13" value="+getColor(): bool" style="text;html=1;strokeColor=none;fillColor=none;align=left;verticalAlign=middle;spacingLeft=4;spacingRight=4;overflow=hidden;rotatable=0;points=[[0,0.5],[1,0.5]];portConstraint=eastwest;" vertex="1" parent="10">
                    <mxGeometry y="98" width="190" height="42" as="geometry"/>
                </mxCell>
                <mxCell id="14" value="GameManager" style="swimlane;fontStyle=0;align=center;verticalAlign=top;childLayout=stackLayout;horizontal=1;startSize=50;horizontalStack=0;resizeParent=1;resizeParentMax=0;resizeLast=0;collapsible=0;marginBottom=0;html=1;" vertex="1" parent="1">
                    <mxGeometry x="120" y="380" width="140" height="140" as="geometry"/>
                </mxCell>
                <mxCell id="15" value="attributes" style="text;html=1;strokeColor=none;fillColor=none;align=center;verticalAlign=middle;spacingLeft=4;spacingRight=4;overflow=hidden;rotatable=0;points=[[0,0.5],[1,0.5]];portConstraint=eastwest;" vertex="1" parent="14">
                    <mxGeometry y="50" width="140" height="40" as="geometry"/>
                </mxCell>
                <mxCell id="16" value="" style="line;strokeWidth=1;fillColor=none;align=left;verticalAlign=middle;spacingTop=-1;spacingLeft=3;spacingRight=3;rotatable=0;labelPosition=right;points=[];portConstraint=eastwest;" vertex="1" parent="14">
                    <mxGeometry y="90" width="140" height="8" as="geometry"/>
                </mxCell>
                <mxCell id="17" value="operations" style="text;html=1;strokeColor=none;fillColor=none;align=center;verticalAlign=middle;spacingLeft=4;spacingRight=4;overflow=hidden;rotatable=0;points=[[0,0.5],[1,0.5]];portConstraint=eastwest;" vertex="1" parent="14">
                    <mxGeometry y="98" width="140" height="42" as="geometry"/>
                </mxCell>
                <mxCell id="55" style="edgeStyle=orthogonalEdgeStyle;rounded=0;orthogonalLoop=1;jettySize=auto;html=1;exitX=0.5;exitY=0;exitDx=0;exitDy=0;endArrow=block;endFill=1;entryX=0.481;entryY=1.028;entryDx=0;entryDy=0;entryPerimeter=0;" edge="1" parent="1" source="22" target="13">
                    <mxGeometry relative="1" as="geometry">
                        <mxPoint x="540" y="250" as="targetPoint"/>
                        <Array as="points">
                            <mxPoint x="545" y="440"/>
                            <mxPoint x="610" y="440"/>
                            <mxPoint x="610" y="260"/>
                            <mxPoint x="540" y="260"/>
                            <mxPoint x="540" y="241"/>
                        </Array>
                    </mxGeometry>
                </mxCell>
                <mxCell id="22" value="Queen" style="swimlane;fontStyle=0;align=center;verticalAlign=top;childLayout=stackLayout;horizontal=1;startSize=50;horizontalStack=0;resizeParent=1;resizeParentMax=0;resizeLast=0;collapsible=0;marginBottom=0;html=1;" vertex="1" parent="1">
                    <mxGeometry x="487.5" y="450" width="115" height="140" as="geometry"/>
                </mxCell>
                <mxCell id="23" value="attributes" style="text;html=1;strokeColor=none;fillColor=none;align=center;verticalAlign=middle;spacingLeft=4;spacingRight=4;overflow=hidden;rotatable=0;points=[[0,0.5],[1,0.5]];portConstraint=eastwest;" vertex="1" parent="22">
                    <mxGeometry y="50" width="115" height="40" as="geometry"/>
                </mxCell>
                <mxCell id="24" value="" style="line;strokeWidth=1;fillColor=none;align=left;verticalAlign=middle;spacingTop=-1;spacingLeft=3;spacingRight=3;rotatable=0;labelPosition=right;points=[];portConstraint=eastwest;" vertex="1" parent="22">
                    <mxGeometry y="90" width="115" height="8" as="geometry"/>
                </mxCell>
                <mxCell id="25" value="operations" style="text;html=1;strokeColor=none;fillColor=none;align=center;verticalAlign=middle;spacingLeft=4;spacingRight=4;overflow=hidden;rotatable=0;points=[[0,0.5],[1,0.5]];portConstraint=eastwest;" vertex="1" parent="22">
                    <mxGeometry y="98" width="115" height="42" as="geometry"/>
                </mxCell>
                <mxCell id="50" style="edgeStyle=orthogonalEdgeStyle;rounded=0;orthogonalLoop=1;jettySize=auto;html=1;exitX=0.5;exitY=0;exitDx=0;exitDy=0;entryX=0.474;entryY=1.028;entryDx=0;entryDy=0;entryPerimeter=0;endArrow=block;endFill=1;" edge="1" parent="1" source="26" target="13">
                    <mxGeometry relative="1" as="geometry"/>
                </mxCell>
                <mxCell id="26" value="Knight" style="swimlane;fontStyle=0;align=center;verticalAlign=top;childLayout=stackLayout;horizontal=1;startSize=50;horizontalStack=0;resizeParent=1;resizeParentMax=0;resizeLast=0;collapsible=0;marginBottom=0;html=1;" vertex="1" parent="1">
                    <mxGeometry x="487.5" y="280" width="115" height="140" as="geometry"/>
                </mxCell>
                <mxCell id="27" value="attributes" style="text;html=1;strokeColor=none;fillColor=none;align=center;verticalAlign=middle;spacingLeft=4;spacingRight=4;overflow=hidden;rotatable=0;points=[[0,0.5],[1,0.5]];portConstraint=eastwest;" vertex="1" parent="26">
                    <mxGeometry y="50" width="115" height="40" as="geometry"/>
                </mxCell>
                <mxCell id="28" value="" style="line;strokeWidth=1;fillColor=none;align=left;verticalAlign=middle;spacingTop=-1;spacingLeft=3;spacingRight=3;rotatable=0;labelPosition=right;points=[];portConstraint=eastwest;" vertex="1" parent="26">
                    <mxGeometry y="90" width="115" height="8" as="geometry"/>
                </mxCell>
                <mxCell id="29" value="operations" style="text;html=1;strokeColor=none;fillColor=none;align=center;verticalAlign=middle;spacingLeft=4;spacingRight=4;overflow=hidden;rotatable=0;points=[[0,0.5],[1,0.5]];portConstraint=eastwest;" vertex="1" parent="26">
                    <mxGeometry y="98" width="115" height="42" as="geometry"/>
                </mxCell>
                <mxCell id="49" style="edgeStyle=orthogonalEdgeStyle;rounded=0;orthogonalLoop=1;jettySize=auto;html=1;exitX=0.5;exitY=0;exitDx=0;exitDy=0;entryX=0.474;entryY=1;entryDx=0;entryDy=0;entryPerimeter=0;endArrow=block;endFill=1;" edge="1" parent="1" source="30" target="13">
                    <mxGeometry relative="1" as="geometry"/>
                </mxCell>
                <mxCell id="30" value="Pawn" style="swimlane;fontStyle=0;align=center;verticalAlign=top;childLayout=stackLayout;horizontal=1;startSize=50;horizontalStack=0;resizeParent=1;resizeParentMax=0;resizeLast=0;collapsible=0;marginBottom=0;html=1;" vertex="1" parent="1">
                    <mxGeometry x="350" y="280" width="115" height="140" as="geometry"/>
                </mxCell>
                <mxCell id="31" value="attributes" style="text;html=1;strokeColor=none;fillColor=none;align=center;verticalAlign=middle;spacingLeft=4;spacingRight=4;overflow=hidden;rotatable=0;points=[[0,0.5],[1,0.5]];portConstraint=eastwest;" vertex="1" parent="30">
                    <mxGeometry y="50" width="115" height="40" as="geometry"/>
                </mxCell>
                <mxCell id="32" value="" style="line;strokeWidth=1;fillColor=none;align=left;verticalAlign=middle;spacingTop=-1;spacingLeft=3;spacingRight=3;rotatable=0;labelPosition=right;points=[];portConstraint=eastwest;" vertex="1" parent="30">
                    <mxGeometry y="90" width="115" height="8" as="geometry"/>
                </mxCell>
                <mxCell id="33" value="operations" style="text;html=1;strokeColor=none;fillColor=none;align=center;verticalAlign=middle;spacingLeft=4;spacingRight=4;overflow=hidden;rotatable=0;points=[[0,0.5],[1,0.5]];portConstraint=eastwest;" vertex="1" parent="30">
                    <mxGeometry y="98" width="115" height="42" as="geometry"/>
                </mxCell>
                <mxCell id="51" style="edgeStyle=orthogonalEdgeStyle;rounded=0;orthogonalLoop=1;jettySize=auto;html=1;exitX=0.5;exitY=0;exitDx=0;exitDy=0;endArrow=block;endFill=1;" edge="1" parent="1" source="34">
                    <mxGeometry relative="1" as="geometry">
                        <mxPoint x="540" y="240" as="targetPoint"/>
                    </mxGeometry>
                </mxCell>
                <mxCell id="34" value="Bishop" style="swimlane;fontStyle=0;align=center;verticalAlign=top;childLayout=stackLayout;horizontal=1;startSize=50;horizontalStack=0;resizeParent=1;resizeParentMax=0;resizeLast=0;collapsible=0;marginBottom=0;html=1;" vertex="1" parent="1">
                    <mxGeometry x="620" y="280" width="115" height="140" as="geometry"/>
                </mxCell>
                <mxCell id="35" value="attributes" style="text;html=1;strokeColor=none;fillColor=none;align=center;verticalAlign=middle;spacingLeft=4;spacingRight=4;overflow=hidden;rotatable=0;points=[[0,0.5],[1,0.5]];portConstraint=eastwest;" vertex="1" parent="34">
                    <mxGeometry y="50" width="115" height="40" as="geometry"/>
                </mxCell>
                <mxCell id="36" value="" style="line;strokeWidth=1;fillColor=none;align=left;verticalAlign=middle;spacingTop=-1;spacingLeft=3;spacingRight=3;rotatable=0;labelPosition=right;points=[];portConstraint=eastwest;" vertex="1" parent="34">
                    <mxGeometry y="90" width="115" height="8" as="geometry"/>
                </mxCell>
                <mxCell id="37" value="operations" style="text;html=1;strokeColor=none;fillColor=none;align=center;verticalAlign=middle;spacingLeft=4;spacingRight=4;overflow=hidden;rotatable=0;points=[[0,0.5],[1,0.5]];portConstraint=eastwest;" vertex="1" parent="34">
                    <mxGeometry y="98" width="115" height="42" as="geometry"/>
                </mxCell>
                <mxCell id="38" value="Rook" style="swimlane;fontStyle=0;align=center;verticalAlign=top;childLayout=stackLayout;horizontal=1;startSize=50;horizontalStack=0;resizeParent=1;resizeParentMax=0;resizeLast=0;collapsible=0;marginBottom=0;html=1;" vertex="1" parent="1">
                    <mxGeometry x="350" y="450" width="115" height="140" as="geometry"/>
                </mxCell>
                <mxCell id="39" value="attributes" style="text;html=1;strokeColor=none;fillColor=none;align=center;verticalAlign=middle;spacingLeft=4;spacingRight=4;overflow=hidden;rotatable=0;points=[[0,0.5],[1,0.5]];portConstraint=eastwest;" vertex="1" parent="38">
                    <mxGeometry y="50" width="115" height="40" as="geometry"/>
                </mxCell>
                <mxCell id="40" value="" style="line;strokeWidth=1;fillColor=none;align=left;verticalAlign=middle;spacingTop=-1;spacingLeft=3;spacingRight=3;rotatable=0;labelPosition=right;points=[];portConstraint=eastwest;" vertex="1" parent="38">
                    <mxGeometry y="90" width="115" height="8" as="geometry"/>
                </mxCell>
                <mxCell id="41" value="operations" style="text;html=1;strokeColor=none;fillColor=none;align=center;verticalAlign=middle;spacingLeft=4;spacingRight=4;overflow=hidden;rotatable=0;points=[[0,0.5],[1,0.5]];portConstraint=eastwest;" vertex="1" parent="38">
                    <mxGeometry y="98" width="115" height="42" as="geometry"/>
                </mxCell>
                <mxCell id="42" value="King" style="swimlane;fontStyle=0;align=center;verticalAlign=top;childLayout=stackLayout;horizontal=1;startSize=50;horizontalStack=0;resizeParent=1;resizeParentMax=0;resizeLast=0;collapsible=0;marginBottom=0;html=1;" vertex="1" parent="1">
                    <mxGeometry x="620" y="450" width="115" height="140" as="geometry"/>
                </mxCell>
                <mxCell id="43" value="attributes" style="text;html=1;strokeColor=none;fillColor=none;align=center;verticalAlign=middle;spacingLeft=4;spacingRight=4;overflow=hidden;rotatable=0;points=[[0,0.5],[1,0.5]];portConstraint=eastwest;" vertex="1" parent="42">
                    <mxGeometry y="50" width="115" height="40" as="geometry"/>
                </mxCell>
                <mxCell id="44" value="" style="line;strokeWidth=1;fillColor=none;align=left;verticalAlign=middle;spacingTop=-1;spacingLeft=3;spacingRight=3;rotatable=0;labelPosition=right;points=[];portConstraint=eastwest;" vertex="1" parent="42">
                    <mxGeometry y="90" width="115" height="8" as="geometry"/>
                </mxCell>
                <mxCell id="45" value="operations" style="text;html=1;strokeColor=none;fillColor=none;align=center;verticalAlign=middle;spacingLeft=4;spacingRight=4;overflow=hidden;rotatable=0;points=[[0,0.5],[1,0.5]];portConstraint=eastwest;" vertex="1" parent="42">
                    <mxGeometry y="98" width="115" height="42" as="geometry"/>
                </mxCell>
                <mxCell id="52" style="edgeStyle=orthogonalEdgeStyle;rounded=0;orthogonalLoop=1;jettySize=auto;html=1;exitX=0;exitY=0.5;exitDx=0;exitDy=0;entryX=0.474;entryY=1;entryDx=0;entryDy=0;entryPerimeter=0;endArrow=block;endFill=1;" edge="1" parent="1" source="39" target="13">
                    <mxGeometry relative="1" as="geometry">
                        <Array as="points">
                            <mxPoint x="330" y="510"/>
                            <mxPoint x="330" y="260"/>
                            <mxPoint x="540" y="260"/>
                        </Array>
                    </mxGeometry>
                </mxCell>
                <mxCell id="53" style="edgeStyle=orthogonalEdgeStyle;rounded=0;orthogonalLoop=1;jettySize=auto;html=1;exitX=1;exitY=0.5;exitDx=0;exitDy=0;endArrow=block;endFill=1;" edge="1" parent="1" source="43">
                    <mxGeometry relative="1" as="geometry">
                        <mxPoint x="540" y="240" as="targetPoint"/>
                        <Array as="points">
                            <mxPoint x="755" y="510"/>
                            <mxPoint x="755" y="260"/>
                            <mxPoint x="540" y="260"/>
                        </Array>
                    </mxGeometry>
                </mxCell>
                <mxCell id="58" value="1" style="endArrow=open;html=1;endSize=12;startArrow=diamondThin;startSize=14;startFill=1;edgeStyle=orthogonalEdgeStyle;align=left;verticalAlign=bottom;exitX=1.012;exitY=0.274;exitDx=0;exitDy=0;exitPerimeter=0;entryX=-0.024;entryY=0.24;entryDx=0;entryDy=0;entryPerimeter=0;" edge="1" parent="1" source="3" target="11">
                    <mxGeometry x="-1" y="3" relative="1" as="geometry">
                        <mxPoint x="270" y="160" as="sourcePoint"/>
                        <mxPoint x="430" y="160" as="targetPoint"/>
                    </mxGeometry>
                </mxCell>
                <mxCell id="59" value="1..n" style="edgeLabel;html=1;align=center;verticalAlign=middle;resizable=0;points=[];" vertex="1" connectable="0" parent="58">
                    <mxGeometry x="0.7333" y="-1" relative="1" as="geometry">
                        <mxPoint y="-21" as="offset"/>
                    </mxGeometry>
                </mxCell>
                <mxCell id="60" value="1" style="endArrow=open;html=1;endSize=12;startArrow=diamondThin;startSize=14;startFill=1;edgeStyle=orthogonalEdgeStyle;align=left;verticalAlign=bottom;exitX=0.5;exitY=0;exitDx=0;exitDy=0;" edge="1" parent="1" source="14">
                    <mxGeometry x="-1" y="3" relative="1" as="geometry">
                        <mxPoint x="180" y="320" as="sourcePoint"/>
                        <mxPoint x="190" y="250" as="targetPoint"/>
                    </mxGeometry>
                </mxCell>
            </root>
        </mxGraphModel>
    </diagram>
</mxfile>